<svg width="36" height="36" viewBox="0 0 24 24" fill="none" xmlns="http://www.w3.org/2000/svg">
<path d="M12 24C18.6274 24 24 18.6274 24 12C24 5.37258 18.6274 0 12 0C5.37258 0 0 5.37258 0 12C0 18.6274 5.37258 24 12 24Z" fill="#9D9D9D"/>
<path d="M4.38525 16.9016V9.37287C4.40279 9.32664 4.42192 9.28201 4.43945 9.23578C4.69928 8.54077 5.23169 8.17255 5.97452 8.17255C6.52447 8.17255 7.07441 8.17414 7.62277 8.17255C7.97983 8.17095 8.20778 8.01474 8.32893 7.67839C8.48515 7.24162 8.62383 6.79688 8.78164 6.36171C8.89641 6.0429 9.13074 5.88987 9.45752 5.88987C11.1201 5.88987 12.7843 5.88827 14.4469 5.88987C14.8948 5.88987 15.1196 6.05565 15.2599 6.47807C15.389 6.86543 15.5165 7.25278 15.6488 7.63854C15.7715 8.00198 16.0059 8.17255 16.3916 8.17414C16.9623 8.17573 17.533 8.17414 18.1036 8.17573C18.1945 8.17573 18.2885 8.17892 18.3762 8.19805C19.0393 8.34789 19.4395 8.76872 19.6132 9.4175V16.8617C19.4554 17.5854 18.7971 18.1194 17.9379 18.1146C13.9575 18.0923 9.97718 18.1067 5.99684 18.1067C5.84221 18.1067 5.68919 18.1098 5.53616 18.0668C4.93201 17.8947 4.57495 17.485 4.38525 16.9047V16.9016ZM15.7891 12.7491C15.7301 10.6051 14.085 8.94407 11.9283 8.97754C9.89429 9.00942 8.23648 10.5987 8.22213 12.7204C8.20778 14.9026 9.90704 16.5413 12.0064 16.5333C14.1376 16.5238 15.7397 14.8755 15.7891 12.7491ZM17.5633 10.7501C17.8295 10.7469 18.067 10.5126 18.0686 10.2544C18.0686 9.98817 17.8231 9.73312 17.5633 9.73153C17.2907 9.72993 17.05 9.96904 17.05 10.2416C17.05 10.5142 17.2923 10.7549 17.5633 10.7517V10.7501Z" fill="white"/>
</svg>
