<svg width="24" height="24" viewBox="0 0 24 24" fill="none" xmlns="http://www.w3.org/2000/svg">
<path d="M15.9994 19.3098L15.9915 19.3023L15.9833 19.2952C15.3963 18.7868 14.6768 18.5034 13.9268 18.5034H2.09392C1.29284 18.5034 0.5 17.6948 0.5 16.5031V2.50021C0.5 1.3086 1.29284 0.5 2.09392 0.5H21.904C22.705 0.5 23.4979 1.3086 23.4979 2.50021V16.5031C23.4979 17.6948 22.705 18.5034 21.904 18.5034H20.8401H20.3431L20.3401 19.0004L20.3143 23.3892L15.9994 19.3098ZM20.4549 23.5227L20.1274 23.9005L20.306 23.525C20.3074 23.5234 20.311 23.5199 20.3184 23.5155C20.3316 23.5075 20.3567 23.4979 20.3904 23.5004C20.4266 23.503 20.4492 23.5177 20.4549 23.5227Z" fill="current" stroke="current"/>
<path d="M3.96118 6.66223H20.0378" stroke="white" stroke-width="1.3" stroke-miterlimit="10" stroke-linecap="round"/>
<path d="M3.96118 11.922H20.0378" stroke="white" stroke-width="1.3" stroke-miterlimit="10" stroke-linecap="round"/>
</svg>
