<?xml version="1.0" encoding="UTF-8"?>
<svg id="a" data-name="Layer 1" xmlns="http://www.w3.org/2000/svg" width="current" height="current" fill='current' viewBox="0 0 18 18">
  <path d="M14.953,5.011c-.034,.32-.269,.471-.442,.644-2.161,2.177-4.333,4.342-6.501,6.511-.443,.444-.891,.883-1.324,1.337-.312,.327-.578,.3-.886-.015-.812-.832-1.616-1.673-2.468-2.463-.648-.601-.033-.862,.252-1.23,.303-.39,.606-.458,.971-.058,.392,.429,.833,.813,1.218,1.249,.345,.391,.591,.366,.958-.004,2.19-2.217,4.4-4.413,6.613-6.607,.178-.176,.347-.559,.67-.329,.369,.263,.755,.543,.938,.966Z"/>
</svg>