<?xml version="1.0" encoding="UTF-8"?>
<svg id="a" data-name="Layer 1" xmlns="http://www.w3.org/2000/svg" width="current" height="current" viewBox="0 0 18 18">
  <rect x="2.46" y="2.373" width="13.08" height="13.08" rx="2.423" ry="2.423" fill="#ffd467" stroke="#ffd467" stroke-miterlimit="10"/>
  <path d="M13.446,6.294c-.023,.218-.184,.321-.301,.439-1.473,1.483-2.953,2.959-4.431,4.437-.302,.302-.607,.602-.902,.911-.212,.223-.394,.204-.604-.011-.553-.567-1.102-1.14-1.682-1.678-.442-.41-.022-.588,.172-.838,.206-.266,.413-.312,.662-.04,.267,.292,.568,.554,.83,.851,.235,.266,.403,.25,.653-.003,1.492-1.511,2.999-3.008,4.507-4.503,.121-.12,.236-.381,.457-.224,.251,.179,.514,.37,.639,.658Z" fill="#fff"/>
</svg>