<svg width="24" height="24" viewBox="0 0 24 24" fill="none" xmlns="http://www.w3.org/2000/svg">
<g clip-path="url(#clip0_1548_2575)">
<path d="M11.2694 0.768694L11.2696 0.768518C11.6983 0.40997 12.3032 0.410404 12.7303 0.768409L12.7304 0.768467L23.0524 9.41693L23.0525 9.417C23.33 9.64936 23.4967 10.0053 23.4967 10.3881V22.2605C23.4967 22.9627 22.9532 23.5 22.3221 23.5H17.254C16.6235 23.5 16.0794 22.9634 16.0794 22.2605V17.5626C16.0794 16.3447 15.1242 15.323 13.9048 15.323H10.0919C8.87398 15.323 7.91727 16.3431 7.91727 17.5626V22.2605C7.91727 22.9627 7.37383 23.5 6.74267 23.5H1.6746C1.04412 23.5 0.5 22.9634 0.5 22.2605V10.3881C0.5 10.0053 0.666704 9.64936 0.944158 9.417L0.944187 9.41698L11.2694 0.768694Z" fill="current" stroke="current"/>
</g>
<defs>
<clipPath id="clip0_1548_2575">
<rect width="24" height="24" fill="white"/>
</clipPath>
</defs>
</svg>
