<?xml version="1.0" encoding="UTF-8"?>
<svg id="a" data-name="Layer 1" xmlns="http://www.w3.org/2000/svg" width="24" height="24" viewBox="0 0 18 18">
  <g>
    <path d="M9,12.058c-1.134,0-2.269,.001-3.403,0-.375,0-.405-.025-.398-.394,.019-.92-.078-1.845,.051-2.76,.274-1.941,1.932-3.305,3.918-3.253,1.867,.049,3.434,1.55,3.613,3.464,.083,.881,.018,1.763,.039,2.645,.007,.288-.181,.298-.388,.298-1.144,0-2.288,0-3.433,0Zm-.974-4.945c-.867,.148-1.566,.581-1.847,1.607-.142,.517-.087,1.041-.093,1.562-.009,.928,.148,.948,.746,.943,.22-.007,.469-.142,.463-.347-.009-.339,.009-.679-.004-1.018-.047-1.281-.044-1.752,.734-2.747Z" fill="#e30613"/>
    <path d="M8.999,14.51c-1.619,0-3.239,0-4.858,0-.382,0-.393-.012-.394-.391-.001-.398,.01-.796-.004-1.193-.009-.249,.078-.347,.335-.342,.63,.013,1.261,.004,1.891,.004,2.628,0,5.256,0,7.884,0,.421,0,.422,.002,.423,.419,0,.368,.001,.737,0,1.105-.001,.383-.013,.396-.389,.396-1.629,0-3.258,0-4.887,0Z" fill="#e30613"/>
  </g>
  <line x1="5.34" y1="4.514" x2="6.202" y2="5.451" fill="none" stroke="#e30613" stroke-linecap="round" stroke-miterlimit="10"/>
  <line x1="9.269" y1="3.241" x2="9.242" y2="4.514" fill="none" stroke="#e30613" stroke-linecap="round" stroke-miterlimit="10"/>
  <line x1="12.918" y1="4.719" x2="12.137" y2="5.725" fill="none" stroke="#e30613" stroke-linecap="round" stroke-miterlimit="10"/>
</svg>