<svg width="39" height="39" viewBox="0 0 39 39" fill="none" xmlns="http://www.w3.org/2000/svg">
<path d="M18.8002 0.6857C19.189 0.304754 19.811 0.304754 20.1998 0.6857L23.2358 3.66026C23.4858 3.90519 23.8456 4.00161 24.1846 3.91449L28.3011 2.85641C28.8283 2.72091 29.367 3.03195 29.5132 3.55626L30.6552 7.65028C30.7492 7.98739 31.0126 8.25081 31.3497 8.34484L35.4437 9.48676C35.9681 9.63301 36.2791 10.1717 36.1436 10.6989L35.0855 14.8154C34.9984 15.1544 35.0948 15.5142 35.3397 15.7642L38.3143 18.8002C38.6952 19.189 38.6952 19.811 38.3143 20.1998L35.3397 23.2358C35.0948 23.4858 34.9984 23.8456 35.0855 24.1846L36.1436 28.3011C36.2791 28.8283 35.9681 29.367 35.4437 29.5132L31.3497 30.6552C31.0126 30.7492 30.7492 31.0126 30.6552 31.3497L29.5132 35.4437C29.367 35.9681 28.8283 36.2791 28.3011 36.1436L24.1846 35.0855C23.8456 34.9984 23.4858 35.0948 23.2358 35.3397L20.1998 38.3143C19.811 38.6952 19.189 38.6952 18.8002 38.3143L15.7642 35.3397C15.5142 35.0948 15.1544 34.9984 14.8154 35.0855L10.6989 36.1436C10.1717 36.2791 9.63301 35.9681 9.48676 35.4437L8.34484 31.3497C8.25081 31.0126 7.98739 30.7492 7.65028 30.6552L3.55626 29.5132C3.03195 29.367 2.72091 28.8283 2.85641 28.3011L3.91449 24.1846C4.00161 23.8456 3.90519 23.4858 3.66026 23.2358L0.6857 20.1998C0.304754 19.811 0.304754 19.189 0.6857 18.8002L3.66026 15.7642C3.90519 15.5142 4.00161 15.1544 3.91449 14.8154L2.85641 10.6989C2.72091 10.1717 3.03195 9.63301 3.55626 9.48676L7.65028 8.34484C7.98739 8.25081 8.25081 7.98739 8.34484 7.65028L9.48676 3.55626C9.63301 3.03195 10.1717 2.72091 10.6989 2.85641L14.8154 3.91449C15.1544 4.00161 15.5142 3.90519 15.7642 3.66026L18.8002 0.6857Z" fill="#CDCDCD"/>
<circle cx="19.5" cy="19.5" r="12.5" fill="#8D8C8C"/>
<path d="M15.4742 26H24.4022V23.768H21.5042C20.8922 23.768 20.0102 23.84 19.3442 23.912C21.7742 21.536 23.7722 18.944 23.7722 16.532C23.7722 14.048 22.0982 12.428 19.5782 12.428C17.7602 12.428 16.5722 13.148 15.3482 14.444L16.7882 15.884C17.4542 15.146 18.2642 14.516 19.2362 14.516C20.4962 14.516 21.2342 15.326 21.2342 16.676C21.2342 18.728 19.0922 21.23 15.4742 24.47V26Z" fill="white"/>
</svg>
