<?xml version="1.0" encoding="UTF-8"?>
<svg id="a" data-name="Layer 1" xmlns="http://www.w3.org/2000/svg" width="22" height="22" fill="gray" viewBox="0 0 18 18">
  <path d="M15.867,9.039c.182,.182,.182,.333,0,.504-.515,.504-.998,1.041-1.523,1.523-.794,.74-1.717,1.277-2.746,1.609-.912,.311-1.845,.429-2.8,.365-1.491-.086-2.843-.558-4.055-1.438-.494-.365-.933-.805-1.363-1.245-.268-.279-.547-.558-.815-.837-.15-.15-.15-.311,0-.472,.504-.494,.976-1.008,1.491-1.491,.998-.923,2.146-1.534,3.465-1.845,.569-.129,1.137-.193,1.717-.182,1.684,0,3.197,.515,4.549,1.513,.515,.375,.944,.837,1.384,1.287,.236,.236,.461,.472,.697,.708Zm-.644,.311c.054-.054,.032-.075-.011-.118-.15-.161-.311-.311-.461-.472-.536-.569-1.094-1.116-1.759-1.534-1.008-.644-2.124-1.008-3.315-1.084-.676-.043-1.341,.011-1.996,.161-1.105,.247-2.092,.74-2.961,1.459-.526,.451-.987,.976-1.481,1.47-.064,.054-.043,.075,0,.129,.236,.236,.461,.472,.697,.708,.429,.451,.88,.869,1.395,1.212,1.18,.772,2.489,1.169,3.991,1.169,.236,0,.558-.021,.88-.064,.193-.032,.386-.064,.579-.107,.976-.225,1.867-.644,2.671-1.245,.654-.494,1.191-1.116,1.77-1.684Z"/>
  <path d="M9.258,6.883c1.298,0,2.371,1.105,2.371,2.414,0,1.33-1.084,2.403-2.425,2.403-1.32,0-2.392-1.094-2.392-2.435,0-1.309,1.105-2.382,2.446-2.382Zm.054,4.216c.912-.043,1.717-.815,1.717-1.792,0-1.019-.805-1.813-1.813-1.824-.987,0-1.835,.837-1.792,1.888,.032,.901,.826,1.77,1.888,1.727Z"/>
  <path d="M11.029,9.307c0,.976-.805,1.749-1.717,1.792-1.062,.043-1.856-.826-1.888-1.727-.043-1.051,.805-1.888,1.792-1.888,1.008,.011,1.813,.805,1.813,1.824Z"/>
</svg>