<svg width="36" height="36" viewBox="0 0 36 36" fill="none" xmlns="http://www.w3.org/2000/svg">
<path d="M18.1099 17.101C19.3709 16.181 20.1999 14.703 20.1999 13.022C20.1999 10.228 17.9349 7.96399 15.1419 7.96399C12.3489 7.96399 10.0839 10.229 10.0839 13.022C10.0839 14.703 10.9119 16.181 12.1739 17.101C8.54093 20.062 7.85693 28.036 7.85693 28.036H22.4279C22.4279 28.036 21.7439 20.061 18.1109 17.101H18.1099Z" fill="#FFD467" stroke="#FFD467" stroke-width="1.425" stroke-miterlimit="10"/>
<path d="M23.827 17.101C25.088 16.181 25.917 14.703 25.917 13.022C25.917 10.228 23.652 7.96399 20.859 7.96399C18.066 7.96399 15.801 10.229 15.801 13.022C15.801 14.703 16.629 16.181 17.891 17.101C14.258 20.062 13.574 28.036 13.574 28.036H28.145C28.145 28.036 27.461 20.061 23.828 17.101H23.827Z" stroke="#FFD467" stroke-width="1.425" stroke-miterlimit="10"/>
</svg>
