<?xml version="1.0" encoding="UTF-8"?>
<svg id="a" data-name="Layer 1" xmlns="http://www.w3.org/2000/svg" width="36" height="36" fill="current" viewBox="0 0 36 36">
  <path d="M18.11,17.101c1.261-.92,2.09-2.398,2.09-4.079,0-2.794-2.265-5.058-5.058-5.058s-5.058,2.265-5.058,5.058c0,1.681,.828,3.159,2.09,4.079-3.633,2.961-4.317,10.935-4.317,10.935h14.571s-.684-7.975-4.317-10.935Z" stroke="#000" stroke-miterlimit="10" stroke-width="1.425"/>
  <path d="M23.827,17.101c1.261-.92,2.09-2.398,2.09-4.079,0-2.794-2.265-5.058-5.058-5.058s-5.058,2.265-5.058,5.058c0,1.681,.828,3.159,2.09,4.079-3.633,2.961-4.317,10.935-4.317,10.935h14.571s-.684-7.975-4.317-10.935Z" fill="none" stroke="#000" stroke-miterlimit="10" stroke-width="1.425"/>
</svg>