<?xml version="1.0" encoding="UTF-8"?>
<svg id="a" data-name="Layer 1" xmlns="http://www.w3.org/2000/svg" width="28" height="28" viewBox="0 0 24 24">
  <g id="b" data-name="DwX1gm.tif">
    <path d="M11.695,3.386h.643c.675,.163,1.152,.555,1.367,1.225,.054,.168,.136,.251,.298,.308,2.284,.812,3.932,3.009,3.909,5.553-.011,1.243-.005,2.486,0,3.729,.002,.507,.081,1.002,.268,1.476,.277,.702,.559,1.403,.837,2.104,.049,.125,.094,.251,.066,.39-.066,.336-.308,.524-.685,.525-1.387,.001-2.774,.003-4.161-.002-.151,0-.241,.048-.329,.171-.951,1.334-2.833,1.333-3.781,0-.088-.124-.179-.171-.329-.17-1.371,.005-2.742,.003-4.113,.003-.408,0-.579-.115-.737-.491v-.225c.273-.691,.54-1.386,.822-2.073,.245-.598,.36-1.216,.357-1.861-.005-1.237,0-2.473-.003-3.71,0-.29,.022-.579,.077-.861,.42-2.16,1.659-3.656,3.684-4.497,.239-.099,.449-.184,.478-.476,.002-.025,.02-.049,.031-.074,.258-.568,.706-.899,1.303-1.042Zm.321,14.079h.723c1.51,0,3.02,0,4.53,0q.31,0,.192-.293c-.119-.298-.238-.597-.359-.894-.275-.678-.412-1.38-.408-2.113,.006-1.216,0-2.432,.002-3.648,0-.328-.03-.651-.092-.973-.465-2.433-2.855-4.246-5.552-3.679-2.207,.464-3.716,2.364-3.717,4.619,0,1.211-.007,2.421,.002,3.632,.006,.772-.138,1.51-.432,2.221-.133,.322-.257,.647-.389,.968-.045,.11-.024,.163,.102,.159,.053-.002,.107,0,.161,0,1.746,0,3.491,0,5.237,0Z"/>
  </g>
</svg>