<?xml version="1.0" encoding="UTF-8"?>
<svg id="a" data-name="Layer 1" xmlns="http://www.w3.org/2000/svg" width="18" height="18" viewBox="0 0 18 18">
  <path d="M12.246,5.713c0-1.793-1.453-3.246-3.246-3.246s-3.246,1.453-3.246,3.246c0,.106,.021,.205,.031,.309l.004,.063,.01,.079c.072,.366,.19,.799,.324,1.169l2.877,8.796,2.818-8.589c.165-.483,.33-1.002,.383-1.376l.012-.117v-.015c.011-.103,.033-.212,.033-.317Zm-3.246,1.866c-1.051,0-1.904-.852-1.904-1.904s.852-1.904,1.904-1.904,1.904,.852,1.904,1.904-.852,1.904-1.904,1.904Z"/>
</svg>