<?xml version="1.0" encoding="UTF-8"?>
<svg id="a" data-name="Layer 1" xmlns="http://www.w3.org/2000/svg" width="current" height="current" viewBox="0 0 24 24">
  <g id="b" data-name="RNapi3">
    <g>
      <path d="M11.485,9.285c-.302,.232-.587,.451-.871,.67-.1,.077-.198,.155-.3,.23-.048,.035-.073,.079-.083,.137-.114,.66-.228,1.32-.343,1.979-.027,.154-.053,.309-.084,.463-.05,.249-.251,.406-.518,.411-.257,.004-.491-.176-.545-.413-.041-.177,0-.349,.025-.521,.115-.784,.237-1.567,.345-2.352,.042-.301,.172-.524,.417-.713,.39-.299,.753-.633,1.128-.952,.251-.213,.495-.434,.753-.638,.233-.184,.493-.313,.803-.303,.289,.009,.578-.016,.867,.014,.229,.024,.402,.144,.537,.322,.186,.245,.3,.529,.427,.805,.299,.651,.599,1.301,.897,1.953,.02,.045,.051,.073,.095,.095,.71,.347,1.419,.696,2.128,1.042,.285,.139,.439,.506,.318,.768-.094,.204-.309,.3-.566,.264-.251-.035-.475-.145-.701-.249-.508-.235-1.015-.472-1.521-.711-.114-.054-.223-.117-.334-.178-.096-.053-.173-.126-.234-.218-.156-.235-.315-.469-.485-.724-.045,.19-.085,.358-.123,.526-.111,.482-.22,.964-.334,1.446-.017,.071-.012,.128,.027,.191,.38,.615,.758,1.231,1.135,1.847,.53,.865,1.06,1.731,1.589,2.596,.124,.202,.25,.402,.37,.607,.143,.245,.226,.51,.175,.795-.084,.467-.686,.713-1.097,.456-.216-.135-.379-.324-.521-.529-.626-.909-1.215-1.844-1.811-2.772-.574-.892-1.147-1.785-1.72-2.678-.174-.272-.31-.557-.347-.884-.023-.203,.017-.398,.056-.594,.138-.696,.276-1.392,.431-2.085,.006-.026,.008-.054,.015-.101Z"/>
      <path d="M8.312,18.416c.004-.235,.111-.434,.238-.619,.51-.746,1.025-1.489,1.54-2.232,.054-.079,.08-.166,.105-.254,.171-.6,.34-1.2,.51-1.8,.008-.027,.002-.072,.04-.075,.031-.002,.046,.037,.063,.062,.346,.475,.691,.95,1.037,1.424,.028,.038,.052,.073,.031,.126-.145,.372-.26,.756-.429,1.118-.064,.137-.147,.263-.238,.383-.466,.623-.93,1.247-1.402,1.866-.149,.195-.309,.383-.518,.521-.19,.126-.391,.167-.6,.055-.228-.122-.383-.297-.378-.576Z"/>
      <path d="M13.715,3.756c.818,0,1.48,.662,1.479,1.478,0,.807-.67,1.484-1.47,1.485-.832,.002-1.499-.667-1.495-1.504,.005-.824,.701-1.48,1.486-1.459Z"/>
    </g>
  </g>
</svg>