<?xml version="1.0" encoding="UTF-8"?>
<svg id="a" data-name="Layer 1" xmlns="http://www.w3.org/2000/svg" width="current" height="current" fill="current" viewBox="0 0 24 24">
  <g id="b" data-name="pVXdga.tif">
    <g>
      <path d="M12.084,20.471c-3.79-.008-6.708-2.433-7.615-5.953-1.073-4.162,1.947-8.514,5.813-9.264,1.949-.378,3.733-.124,5.455,.776,.268,.14,.735,.251,.525,.737-.224,.516-.999,.943-1.361,.781-1.227-.549-2.475-.836-3.849-.663-2.245,.283-4.551,2.396-4.917,4.628-.498,3.044,.8,5.513,3.555,6.763,3.36,1.524,7.549-.739,8.127-4.382,.103-.647,.19-1.279,.039-1.935-.109-.474,.637-1.558,1.103-1.708,.228-.073,.275,.086,.354,.229,.219,.396,.305,.829,.341,1.27,.287,3.494-1.03,6.165-4.12,7.883-1.113,.619-2.325,.934-3.451,.837Z"/>
      <path d="M19.611,7.547c-.034,.32-.269,.471-.442,.644-2.161,2.177-4.333,4.342-6.501,6.511-.443,.444-.891,.883-1.324,1.337-.312,.327-.578,.3-.886-.015-.812-.832-1.616-1.673-2.468-2.463-.648-.601-.033-.862,.252-1.23,.303-.39,.606-.458,.971-.058,.392,.429,.833,.813,1.218,1.249,.345,.391,.591,.366,.958-.004,2.19-2.217,4.4-4.413,6.613-6.607,.178-.176,.347-.559,.67-.329,.369,.263,.755,.543,.938,.966Z"/>
    </g>
  </g>
</svg>