<?xml version="1.0" encoding="UTF-8"?>
<svg id="a" dataName="Layer 1" xmlns="http://www.w3.org/2000/svg" width="current" height="current" fill="#ffca39" viewBox="0 0 24 24">
  <path d="M21.416,10.651c0-1.222-.656-2.283-1.629-2.876-.049-1.822-1.533-3.286-3.366-3.286-.509,0-.987,.121-1.42,.323-.601-.929-1.642-1.547-2.831-1.547-.952,0-1.808,.397-2.421,1.031-.467-.245-.991-.396-1.555-.396-1.864,0-3.375,1.511-3.375,3.375,0,.165,.026,.323,.049,.482-.991,.588-1.662,1.658-1.662,2.893,0,.998,.441,1.885,1.13,2.503-.114,.339-.19,.695-.19,1.072,0,1.864,1.511,3.375,3.375,3.375,.354,0,.689-.07,1.01-.171,.611,.869,1.617,1.441,2.76,1.441,1.236,0,2.306-.672,2.894-1.664,.039,.013,.078,.025,.118,.037,.619,.771,1.557,1.274,2.622,1.274,1.864,0,3.375-1.511,3.375-3.375,0-.603-.171-1.162-.449-1.652,.939-.599,1.565-1.644,1.565-2.841Z"/>
  <g id="b" dataName="1EHFOh">
    <g>
      <path d="M10.684,12.155c0-.528,0-1.056,0-1.584,0-.233,.082-.329,.312-.375,.089-.018,.155-.078,.218-.138,.239-.228,.444-.487,.652-.743,.177-.219,.359-.434,.551-.64,.131-.141,.186-.319,.232-.5,.062-.247,.09-.502,.177-.743,.039-.108,.098-.205,.165-.298,.114-.157,.275-.173,.45-.158,.416,.034,.72,.225,.883,.619,.053,.129,.074,.267,.088,.403,.022,.212,.014,.422-.041,.633-.072,.277-.22,.517-.334,.774-.006,.014-.013,.027-.018,.041-.038,.11-.028,.123,.088,.123,.426,0,.852,0,1.278,0,.601,0,1.069,.56,.97,1.151-.033,.197-.102,.376-.222,.533-.034,.044-.033,.083-.02,.133,.083,.326,.064,.641-.123,.931-.027,.043-.035,.081-.025,.134,.071,.355-.011,.672-.248,.946-.034,.039-.044,.074-.042,.128,.027,.629-.261,1.121-.983,1.213-.549,.07-1.106,.053-1.656-.051-.497-.094-.973-.255-1.449-.417-.204-.069-.408-.139-.626-.157-.158-.014-.276-.162-.276-.327,0-.543,0-1.086,0-1.629Z" fill="#fff"/>
      <path d="M8.251,12.167c0-.528,0-1.056,0-1.584,0-.234,.133-.366,.368-.366,.465,0,.93,0,1.395,0,.211,0,.355,.143,.355,.356,0,1.062,0,2.125,0,3.187,0,.221-.138,.357-.362,.357-.462,0-.924,0-1.386,0-.239,0-.369-.131-.369-.374,0-.525,0-1.05,0-1.575Zm.66,.969c-.002,.167,.146,.321,.309,.322,.164,0,.326-.153,.328-.309,.002-.166-.156-.328-.319-.328-.165,0-.316,.15-.318,.315Z" fill="#fff"/>
    </g>
  </g>
</svg>