<?xml version="1.0" encoding="UTF-8"?>
<svg id="a" data-name="Layer 1" xmlns="http://www.w3.org/2000/svg" width="current" height="current" viewBox="0 0 24 24">
  <g id="b" data-name="z5VbGI.tif">
    <g>
      <path d="M19.99,16.896c-5.31,0-10.62-.001-15.929,.005-.177,0-.241-.034-.208-.211,.012-.066,.002-.137,.002-.206,.115-.14,.273-.158,.441-.158,1.038,.002,2.076,.001,3.114,0,.244,0,.243,0,.135-.206-.037-.072-.078-.145-.097-.222-.035-.146-.112-.204-.265-.197-.237,.011-.475,.006-.713,0-.284-.006-.377-.105-.378-.39,0-.686-.004-1.373,.002-2.059,.001-.155-.056-.213-.209-.208-.194,.007-.388,.007-.581-.004-.199-.012-.326-.139-.321-.299,.005-.164,.134-.273,.337-.278,.181-.004,.363-.004,.544,0,.131,.003,.234-.005,.231-.183-.003-.17-.107-.169-.227-.169-.544,0-1.088-.002-1.632,.001-.153,0-.283-.04-.381-.161v-.262c.086-.125,.208-.165,.356-.164,.562,.003,1.124,0,1.686,.002,.128,0,.198-.033,.198-.178,0-.15-.079-.176-.203-.173-.187,.004-.375,.004-.562-.001-.212-.006-.346-.122-.346-.291,0-.169,.134-.285,.346-.29,.2-.005,.4-.004,.599-.002,.122,.002,.161-.057,.165-.173,.004-.145-.068-.18-.196-.179-.562,.003-1.124-.001-1.686,.002-.148,0-.27-.039-.357-.164v-.262c.098-.122,.228-.162,.381-.161,.55,.003,1.101-.003,1.651,.003,.154,.002,.211-.055,.208-.209-.007-.374-.003-.749-.002-1.123,.001-.266,.093-.358,.363-.358,2.976,0,5.953,0,8.929,0,.282,0,.377,.1,.378,.389,.002,.406,.008,.812-.003,1.217-.005,.183,.062,.238,.24,.235,.65-.008,1.301-.001,1.951-.004,.169,0,.299,.052,.398,.197,.569,.836,1.142,1.67,1.714,2.504,.058,.084,.094,.172,.094,.278-.002,.861,0,1.722-.002,2.584,0,.209-.093,.309-.303,.329-.118,.011-.237,.006-.356,.006q-.312,0-.43,.28c-.027,.063-.054,.127-.093,.183-.08,.116-.059,.163,.086,.161,.244-.004,.488-.003,.732,.001,.151,.002,.294,.037,.349,.199,.053,.157-.014,.279-.148,.368ZM10.91,8.551c-1.138,0-2.276,0-3.413,0-.219,0-.438,.003-.656,0-.13-.002-.199,.039-.196,.182,.006,.249,.005,.499,0,.749-.002,.129,.054,.18,.18,.177,.144-.003,.288-.006,.431,.006,.189,.016,.295,.135,.288,.303-.007,.158-.116,.262-.298,.272-.131,.007-.263,.005-.394,.002-.119-.003-.206,.013-.209,.167-.003,.159,.078,.186,.211,.185,.425-.004,.85-.002,1.275,0,.106,0,.214-.006,.318,.01,.152,.024,.252,.119,.254,.278,.002,.159-.097,.252-.248,.285-.066,.014-.137,.011-.205,.011-.469,0-.938,.003-1.407,0-.128,0-.199,.032-.198,.178,0,.15,.079,.178,.203,.173,.125-.004,.25-.004,.375,0,.206,.007,.322,.112,.323,.286,.001,.171-.115,.282-.319,.294-.137,.008-.275,.006-.412,.003-.119-.002-.165,.051-.169,.169-.004,.142,.061,.184,.193,.183,.513-.003,1.025-.003,1.538,0,.198,.002,.329,.121,.329,.284,0,.156-.119,.273-.307,.293-.062,.007-.125,.004-.187,.004-.45,0-.9,.005-1.35-.002-.164-.003-.219,.059-.216,.22,.008,.462,0,.923,.003,1.385,.004,.543-.074,.461,.481,.475,.172,.004,.265-.035,.325-.218,.2-.605,.79-1.012,1.417-1.009,.634,.004,1.209,.408,1.412,1.015,.057,.169,.141,.213,.31,.213,1.438-.006,2.876-.003,4.314-.004,.271,0,.273-.001,.273-.271,0-2.009,0-4.018,0-6.028,0-.268-.004-.273-.273-.273-1.332,0-2.663,0-3.995,0Zm4.853,4.188c0,.705,0,1.41,0,2.115,0,.264,.028,.28,.292,.271,.148-.005,.165-.108,.2-.206,.279-.779,1.095-1.194,1.871-.945,.498,.16,.833,.495,.986,.996,.066,.218,.232,.147,.369,.146,.139,0,.12-.118,.12-.21,0-.636,0-1.273,.002-1.909,0-.098-.025-.181-.081-.262-.502-.73-1.005-1.46-1.502-2.194-.076-.112-.162-.153-.295-.152-.575,.005-1.15,.008-1.725-.001-.179-.003-.241,.052-.239,.235,.008,.705,.003,1.41,.003,2.115Zm-2.501,3.589c1,0,2,0,3.001,0,.203,0,.202-.001,.109-.172-.036-.065-.084-.132-.095-.202-.037-.227-.179-.253-.378-.252-1.75,.006-3.501,.007-5.251,0-.213-.001-.346,.045-.387,.268-.012,.065-.054,.125-.087,.185-.095,.172-.096,.174,.107,.174,.994,0,1.988,0,2.982,0Zm-4.4-.002c.522,0,.946-.413,.942-.918-.003-.501-.44-.933-.941-.931-.511,.002-.919,.42-.917,.939,.002,.518,.396,.91,.915,.91Zm9.732-.898c.006-.526-.39-.943-.903-.951-.503-.009-.941,.415-.951,.918-.009,.501,.404,.925,.908,.93,.539,.006,.94-.375,.946-.898Z"/>
      <path d="M17.543,12.864c-.393,0-.787,.002-1.18,0-.245-.002-.357-.108-.36-.352-.005-.517-.004-1.035,0-1.552,.002-.233,.109-.35,.343-.356,.406-.01,.812-.005,1.218-.001,.139,.001,.247,.067,.329,.184,.369,.526,.742,1.049,1.113,1.573,.075,.106,.124,.218,.052,.347-.069,.125-.182,.159-.315,.158-.4-.002-.799,0-1.199,0Zm-.129-.582c.218,0,.437,0,.655,0,.042,0,.097,.017,.12-.028,.024-.045-.023-.08-.047-.113-.201-.286-.404-.569-.605-.855-.051-.073-.115-.108-.204-.107-.193,.003-.387,.003-.58,0-.12-.002-.168,.053-.167,.17,.003,.249,.005,.498,0,.748-.003,.138,.058,.189,.191,.186,.212-.005,.424-.001,.637,0Z"/>
    </g>
  </g>
</svg>